<?xml version="1.0" standalone="no"?>
<!DOCTYPE svg PUBLIC "-//W3C//DTD SVG 20010904//EN"
 "http://www.w3.org/TR/2001/REC-SVG-20010904/DTD/svg10.dtd">
<svg version="1.0" xmlns="http://www.w3.org/2000/svg"
 width="200.000000pt" height="200.000000pt" viewBox="0 0 200.000000 200.000000"
 preserveAspectRatio="xMidYMid meet">

<g transform="translate(0.000000,200.000000) scale(0.100000,-0.100000)"
fill="#000000" stroke="none">
<path d="M1346 1692 c-2 -4 -11 -35 -20 -69 -48 -185 -148 -412 -210 -477 -24
-26 -42 -34 -83 -40 -173 -22 -283 -109 -324 -253 -16 -60 -7 -65 106 -60 71
2 102 8 145 29 55 26 147 109 178 160 9 15 29 33 45 39 66 28 155 96 299 231
84 79 178 165 208 191 l54 49 -24 18 -25 19 -71 -77 c-40 -42 -75 -74 -79 -70
-9 8 32 77 76 130 30 35 32 58 6 58 -7 0 -29 -25 -51 -55 -45 -63 -96 -114
-96 -96 0 18 28 70 68 124 28 40 32 51 21 58 -23 14 -26 12 -63 -48 -19 -32
-49 -71 -66 -88 -32 -30 -32 -30 -25 -5 11 37 56 118 81 145 18 19 19 25 7 29
-29 11 -38 5 -65 -42 -27 -48 -88 -130 -88 -119 0 15 50 138 66 162 9 14 15
28 12 30 -12 12 -78 34 -82 27z"/>
<path d="M490 1490 c-74 -115 -116 -268 -107 -389 5 -79 34 -168 67 -211 l20
-25 0 51 c0 123 75 277 194 401 71 73 72 75 56 96 l-17 21 -17 -26 c-10 -15
-29 -34 -42 -43 l-25 -16 17 33 c9 18 23 40 30 49 12 14 12 18 1 28 -11 9 -19
4 -37 -23 -13 -18 -32 -38 -42 -45 -16 -10 -17 -8 -7 17 6 15 20 37 32 50 18
19 19 24 7 32 -11 7 -26 -3 -58 -38 -35 -39 -42 -43 -36 -22 4 14 16 38 26 53
11 16 19 30 17 31 -2 2 -14 8 -26 14 -19 11 -24 7 -53 -38z"/>
<path d="M794 1406 c-110 -80 -168 -142 -227 -238 -104 -172 -110 -370 -15
-520 32 -50 29 -70 -15 -98 -19 -11 -26 -7 -75 44 -29 31 -61 56 -70 56 -25 0
-97 -38 -118 -62 -18 -21 -17 -21 21 2 l39 24 -29 -39 c-26 -36 -27 -38 -5
-19 44 38 57 42 38 11 -23 -33 -24 -50 -2 -18 9 12 30 31 46 41 30 18 30 18
57 -10 14 -15 38 -42 53 -59 l27 -32 21 21 c50 50 191 92 256 76 24 -6 26 -10
19 -44 -10 -54 -20 -62 -86 -62 -85 0 -153 -17 -179 -46 -13 -13 -20 -27 -17
-31 4 -3 7 -1 7 6 0 12 58 41 80 41 6 0 -5 -15 -24 -34 -20 -18 -36 -42 -36
-52 1 -15 4 -13 16 8 14 27 51 54 61 45 2 -3 -3 -19 -11 -36 -9 -16 -16 -40
-16 -53 1 -17 5 -12 15 16 24 69 56 90 156 103 30 4 38 10 48 38 17 48 82 116
244 259 168 147 267 264 292 345 7 24 7 24 -31 -5 -22 -17 -64 -45 -94 -64
-30 -18 -62 -42 -70 -54 -92 -132 -223 -206 -364 -206 -75 0 -146 15 -146 30
0 28 25 120 41 152 36 70 77 106 177 155 2 0 -4 15 -13 33 -28 54 -5 110 66
161 26 18 27 18 54 -3 15 -12 40 -38 55 -60 l28 -38 6 26 c17 64 -38 205 -93
241 -54 37 -77 30 -187 -51z"/>
<path d="M1085 725 l-29 -24 28 -22 c16 -12 36 -36 46 -52 l18 -29 -35 -49
c-35 -49 -54 -59 -164 -83 -28 -6 -79 -42 -79 -56 0 -5 20 3 46 17 48 27 71
27 30 -1 -14 -9 -33 -31 -42 -49 l-16 -32 33 31 c32 30 70 54 84 54 4 0 -2
-12 -13 -27 -11 -16 -23 -39 -27 -53 -4 -15 9 -2 35 33 25 35 54 63 76 72 19
8 34 18 34 23 0 5 20 35 44 66 l43 56 -39 75 c-22 41 -40 75 -41 75 -1 -1 -15
-12 -32 -25z"/>
</g>
</svg>
